<svg width="458" height="416" viewBox="0 0 458 416" fill="none" xmlns="http://www.w3.org/2000/svg">
<rect width="458" height="416" fill="white"/>
<path fill-rule="evenodd" clip-rule="evenodd" d="M190.034 144.352C190.034 133.306 198.989 124.352 210.034 124.352H319C330.046 124.352 339 133.306 339 144.352V231.717C339 242.763 330.046 251.717 319 251.717H210.034C198.989 251.717 190.034 242.763 190.034 231.717V144.352ZM203.441 147.759C203.441 142.236 207.919 137.759 213.441 137.759H315.593C321.116 137.759 325.593 142.236 325.593 147.759V227.566C325.593 233.088 321.116 237.566 315.593 237.566H213.441C207.919 237.566 203.441 233.088 203.441 227.566V201.069H190.034V173.51H203.441V147.759Z" fill="#4654A3"/>
<path fill-rule="evenodd" clip-rule="evenodd" d="M123 87C123 75.9543 131.954 67 143 67H251.965C263.011 67 271.966 75.9543 271.966 87V116.903H258.559V90.4069C258.559 84.8841 254.081 80.4069 248.559 80.4069H146.407C140.884 80.4069 136.407 84.8841 136.407 90.4069V170.214C136.407 175.737 140.884 180.214 146.407 180.214H248.559C254.081 180.214 258.559 175.737 258.559 170.214V144.462H271.966V174.366C271.966 185.411 263.011 194.366 251.966 194.366H143C131.954 194.366 123 185.411 123 174.366V87Z" fill="#4654A3"/>
<path d="M73.48 362.88C68.86 362.88 64.7533 361.963 61.16 360.13C57.64 358.223 54.89 355.583 52.91 352.21C51.0033 348.763 50.05 344.803 50.05 340.33V306.56C50.05 299.74 52.1767 294.313 56.43 290.28C60.7567 286.173 66.44 284.12 73.48 284.12C80.52 284.12 86.1667 286.137 90.42 290.17C94.6733 294.203 96.8 299.557 96.8 306.23V307.11C96.8 307.477 96.69 307.77 96.47 307.99C96.25 308.21 95.9933 308.32 95.7 308.32L87.34 308.76C86.6067 308.76 86.24 308.393 86.24 307.66V306.01C86.24 302.197 85.0667 299.117 82.72 296.77C80.3733 294.423 77.2933 293.25 73.48 293.25C69.6667 293.25 66.55 294.423 64.13 296.77C61.7833 299.117 60.61 302.197 60.61 306.01V340.99C60.61 344.803 61.7833 347.883 64.13 350.23C66.55 352.577 69.6667 353.75 73.48 353.75C77.2933 353.75 80.3733 352.577 82.72 350.23C85.0667 347.883 86.24 344.803 86.24 340.99V339.45C86.24 338.717 86.6067 338.35 87.34 338.35L95.7 338.79C96.4333 338.79 96.8 339.157 96.8 339.89V340.66C96.8 345.06 95.81 348.947 93.83 352.32C91.9233 355.693 89.21 358.297 85.69 360.13C82.17 361.963 78.1 362.88 73.48 362.88ZM179.66 362.88C175.04 362.88 170.933 361.963 167.34 360.13C163.82 358.223 161.07 355.583 159.09 352.21C157.183 348.763 156.23 344.803 156.23 340.33V306.56C156.23 299.74 158.357 294.313 162.61 290.28C166.937 286.173 172.62 284.12 179.66 284.12C186.7 284.12 192.347 286.137 196.6 290.17C200.853 294.203 202.98 299.557 202.98 306.23V307.11C202.98 307.477 202.87 307.77 202.65 307.99C202.43 308.21 202.173 308.32 201.88 308.32L193.52 308.76C192.787 308.76 192.42 308.393 192.42 307.66V306.01C192.42 302.197 191.247 299.117 188.9 296.77C186.553 294.423 183.473 293.25 179.66 293.25C175.847 293.25 172.73 294.423 170.31 296.77C167.963 299.117 166.79 302.197 166.79 306.01V340.99C166.79 344.803 167.963 347.883 170.31 350.23C172.73 352.577 175.847 353.75 179.66 353.75C183.473 353.75 186.553 352.577 188.9 350.23C191.247 347.883 192.42 344.803 192.42 340.99V339.45C192.42 338.717 192.787 338.35 193.52 338.35L201.88 338.79C202.613 338.79 202.98 339.157 202.98 339.89V340.66C202.98 345.06 201.99 348.947 200.01 352.32C198.103 355.693 195.39 358.297 191.87 360.13C188.35 361.963 184.28 362.88 179.66 362.88ZM274.51 352.32C274.29 352.687 274.363 352.87 274.73 352.87H303.88C304.613 352.87 304.98 353.237 304.98 353.97V360.9C304.98 361.633 304.613 362 303.88 362H262.41C261.677 362 261.31 361.633 261.31 360.9V353.86C261.31 353.347 261.457 352.907 261.75 352.54C271.21 340.367 278.58 330.577 283.86 323.17C289.507 315.323 292.33 309.053 292.33 304.36C292.33 300.987 291.377 298.31 289.47 296.33C287.563 294.277 285.033 293.25 281.88 293.25C278.8 293.25 276.307 294.277 274.4 296.33C272.567 298.31 271.687 300.95 271.76 304.25V308.1C271.76 308.833 271.393 309.2 270.66 309.2H262.19C261.457 309.2 261.09 308.833 261.09 308.1V303.37C261.237 297.577 263.253 292.92 267.14 289.4C271.1 285.88 276.087 284.12 282.1 284.12C286.28 284.12 289.947 285 293.1 286.76C296.253 288.447 298.673 290.83 300.36 293.91C302.12 296.99 303 300.473 303 304.36C303 310.887 300.067 318.293 294.2 326.58C290.827 331.347 285.327 338.57 277.7 348.25L274.51 352.32ZM407.332 331.86C408.065 331.86 408.432 332.227 408.432 332.96V340.33C408.432 341.063 408.065 341.43 407.332 341.43H403.262C402.968 341.43 402.822 341.577 402.822 341.87V360.9C402.822 361.633 402.455 362 401.722 362H393.362C392.628 362 392.262 361.633 392.262 360.9V341.87C392.262 341.577 392.115 341.43 391.822 341.43H361.572C360.838 341.43 360.472 341.063 360.472 340.33V334.28C360.472 333.767 360.545 333.327 360.692 332.96L379.502 285.88C379.722 285.293 380.125 285 380.712 285H389.732C390.098 285 390.355 285.147 390.502 285.44C390.648 285.66 390.648 285.953 390.502 286.32L372.792 331.31C372.718 331.457 372.718 331.603 372.792 331.75C372.865 331.823 372.975 331.86 373.122 331.86H391.822C392.115 331.86 392.262 331.713 392.262 331.42V315.8C392.262 315.067 392.628 314.7 393.362 314.7H401.722C402.455 314.7 402.822 315.067 402.822 315.8V331.42C402.822 331.713 402.968 331.86 403.262 331.86H407.332Z" fill="#4654A3"/>
</svg>
