<svg width="359" height="79" viewBox="0 0 359 79" fill="none" xmlns="http://www.w3.org/2000/svg">
<path d="M23.48 78.88C18.86 78.88 14.7533 77.9633 11.16 76.13C7.64 74.2233 4.89 71.5833 2.91 68.21C1.00333 64.7633 0.0500004 60.8033 0.0500004 56.33V22.56C0.0500004 15.74 2.17667 10.3133 6.43 6.28C10.7567 2.17333 16.44 0.12 23.48 0.12C30.52 0.12 36.1667 2.13666 40.42 6.16999C44.6733 10.2033 46.8 15.5567 46.8 22.23V23.11C46.8 23.4767 46.69 23.77 46.47 23.99C46.25 24.21 45.9933 24.32 45.7 24.32L37.34 24.76C36.6067 24.76 36.24 24.3933 36.24 23.66V22.01C36.24 18.1967 35.0667 15.1167 32.72 12.77C30.3733 10.4233 27.2933 9.25 23.48 9.25C19.6667 9.25 16.55 10.4233 14.13 12.77C11.7833 15.1167 10.61 18.1967 10.61 22.01V56.99C10.61 60.8033 11.7833 63.8833 14.13 66.23C16.55 68.5767 19.6667 69.75 23.48 69.75C27.2933 69.75 30.3733 68.5767 32.72 66.23C35.0667 63.8833 36.24 60.8033 36.24 56.99V55.45C36.24 54.7167 36.6067 54.35 37.34 54.35L45.7 54.79C46.4333 54.79 46.8 55.1567 46.8 55.89V56.66C46.8 61.06 45.81 64.9467 43.83 68.32C41.9233 71.6933 39.21 74.2967 35.69 76.13C32.17 77.9633 28.1 78.88 23.48 78.88ZM129.66 78.88C125.04 78.88 120.933 77.9633 117.34 76.13C113.82 74.2233 111.07 71.5833 109.09 68.21C107.183 64.7633 106.23 60.8033 106.23 56.33V22.56C106.23 15.74 108.357 10.3133 112.61 6.28C116.937 2.17333 122.62 0.12 129.66 0.12C136.7 0.12 142.347 2.13666 146.6 6.16999C150.853 10.2033 152.98 15.5567 152.98 22.23V23.11C152.98 23.4767 152.87 23.77 152.65 23.99C152.43 24.21 152.173 24.32 151.88 24.32L143.52 24.76C142.787 24.76 142.42 24.3933 142.42 23.66V22.01C142.42 18.1967 141.247 15.1167 138.9 12.77C136.553 10.4233 133.473 9.25 129.66 9.25C125.847 9.25 122.73 10.4233 120.31 12.77C117.963 15.1167 116.79 18.1967 116.79 22.01V56.99C116.79 60.8033 117.963 63.8833 120.31 66.23C122.73 68.5767 125.847 69.75 129.66 69.75C133.473 69.75 136.553 68.5767 138.9 66.23C141.247 63.8833 142.42 60.8033 142.42 56.99V55.45C142.42 54.7167 142.787 54.35 143.52 54.35L151.88 54.79C152.613 54.79 152.98 55.1567 152.98 55.89V56.66C152.98 61.06 151.99 64.9467 150.01 68.32C148.103 71.6933 145.39 74.2967 141.87 76.13C138.35 77.9633 134.28 78.88 129.66 78.88ZM224.51 68.32C224.29 68.6867 224.363 68.87 224.73 68.87H253.88C254.613 68.87 254.98 69.2367 254.98 69.97V76.9C254.98 77.6333 254.613 78 253.88 78H212.41C211.677 78 211.31 77.6333 211.31 76.9V69.86C211.31 69.3467 211.457 68.9067 211.75 68.54C221.21 56.3667 228.58 46.5767 233.86 39.17C239.507 31.3233 242.33 25.0533 242.33 20.36C242.33 16.9867 241.377 14.31 239.47 12.33C237.563 10.2767 235.033 9.25 231.88 9.25C228.8 9.25 226.307 10.2767 224.4 12.33C222.567 14.31 221.687 16.95 221.76 20.25V24.1C221.76 24.8333 221.393 25.2 220.66 25.2H212.19C211.457 25.2 211.09 24.8333 211.09 24.1V19.37C211.237 13.5767 213.253 8.92 217.14 5.4C221.1 1.88 226.087 0.12 232.1 0.12C236.28 0.12 239.947 0.999999 243.1 2.76C246.253 4.44667 248.673 6.83 250.36 9.91C252.12 12.99 253 16.4733 253 20.36C253 26.8867 250.067 34.2933 244.2 42.58C240.827 47.3467 235.327 54.57 227.7 64.25L224.51 68.32ZM357.332 47.86C358.065 47.86 358.432 48.2267 358.432 48.96V56.33C358.432 57.0633 358.065 57.43 357.332 57.43H353.262C352.968 57.43 352.822 57.5767 352.822 57.87V76.9C352.822 77.6333 352.455 78 351.722 78H343.362C342.628 78 342.262 77.6333 342.262 76.9V57.87C342.262 57.5767 342.115 57.43 341.822 57.43H311.572C310.838 57.43 310.472 57.0633 310.472 56.33V50.28C310.472 49.7667 310.545 49.3267 310.692 48.96L329.502 1.88C329.722 1.29333 330.125 0.999995 330.712 0.999995H339.732C340.098 0.999995 340.355 1.14666 340.502 1.44C340.648 1.66 340.648 1.95333 340.502 2.32L322.792 47.31C322.718 47.4567 322.718 47.6033 322.792 47.75C322.865 47.8233 322.975 47.86 323.122 47.86H341.822C342.115 47.86 342.262 47.7133 342.262 47.42V31.8C342.262 31.0667 342.628 30.7 343.362 30.7H351.722C352.455 30.7 352.822 31.0667 352.822 31.8V47.42C352.822 47.7133 352.968 47.86 353.262 47.86H357.332Z" fill="#4654A3"/>
</svg>
