<svg width="127" height="56" viewBox="0 0 127 56" fill="none" xmlns="http://www.w3.org/2000/svg">
<path d="M0.159024 12.36C0.159024 8.57333 1.43902 5.64 3.99902 3.56C6.55902 1.42666 10.4257 0.359998 15.599 0.359998C19.0124 0.359998 22.159 0.759997 25.039 1.56V8.52C21.8924 7.61333 18.799 7.16 15.759 7.16C12.719 7.16 10.6124 7.64 9.43902 8.6C8.31902 9.56 7.75902 11 7.75902 12.92V42.92C7.75902 44.7867 8.34569 46.2 9.51902 47.16C10.6924 48.12 12.8524 48.6 15.999 48.6C19.1457 48.6 22.239 48.1733 25.279 47.32V54.12C22.5057 54.9733 19.2524 55.4 15.519 55.4C5.27902 55.4 0.159024 51.4 0.159024 43.4V12.36ZM32.1121 12.36C32.1121 8.57333 33.3921 5.64 35.9521 3.56C38.5121 1.42666 42.3788 0.359998 47.5521 0.359998C50.9655 0.359998 54.1121 0.759997 56.9921 1.56V8.52C53.8455 7.61333 50.7521 7.16 47.7121 7.16C44.6721 7.16 42.5655 7.64 41.3921 8.6C40.2721 9.56 39.7121 11 39.7121 12.92V42.92C39.7121 44.7867 40.2988 46.2 41.4721 47.16C42.6455 48.12 44.8055 48.6 47.9521 48.6C51.0988 48.6 54.1921 48.1733 57.2322 47.32V54.12C54.4588 54.9733 51.2055 55.4 47.4721 55.4C37.2321 55.4 32.1121 51.4 32.1121 43.4V12.36ZM74.3853 0.359998C84.4119 0.359998 89.4253 4.36 89.4253 12.36V17C89.4253 19.8267 88.9453 22.2 87.9853 24.12C87.0786 25.9867 85.5319 27.6933 83.3453 29.24L76.8653 34.12C74.4119 35.88 72.7853 37.3467 71.9853 38.52C71.1853 39.6933 70.7853 41.3733 70.7853 43.56V48.2H89.3453V55H63.1853V43C63.1853 39.7467 63.8519 37.1333 65.1853 35.16C66.5186 33.1867 68.5186 31.2667 71.1853 29.4L77.9853 24.12C79.5319 23.1067 80.5719 22.0133 81.1053 20.84C81.6386 19.6667 81.9053 18.0667 81.9053 16.04V13C81.9053 11.08 81.3719 9.66666 80.3053 8.76C79.2386 7.8 77.0253 7.32 73.6653 7.32C70.3586 7.32 67.1586 7.93333 64.0653 9.16V1.88C66.9986 0.866664 70.4386 0.359998 74.3853 0.359998ZM126.312 38.52V45.16H120.952V55H113.752V45.16H93.7521V38.2L110.312 0.759997H120.952V38.52H126.312ZM113.912 38.52V7.88L100.472 38.52H113.912Z" fill="black"/>
</svg>
