<svg width="448" height="56" viewBox="0 0 448 56" fill="none" xmlns="http://www.w3.org/2000/svg">
<g filter="url(#filter0_d_144_1094)">
<rect x="444" width="48" height="440" rx="24" transform="rotate(90 444 0)" fill="#364C63" shape-rendering="crispEdges"/>
<path d="M211.122 21.76V24.56H213.782V21.76H211.122ZM212.422 15C209.742 15 207.802 16.54 207.802 18.78C207.802 20.98 209.742 22.52 212.422 22.52C215.102 22.52 217.042 20.98 217.042 18.78C217.042 16.54 215.102 15 212.422 15ZM212.422 17C213.702 17 214.562 17.64 214.562 18.78C214.562 19.9 213.702 20.54 212.422 20.54C211.162 20.54 210.282 19.9 210.282 18.78C210.282 17.64 211.162 17 212.422 17ZM218.942 14.28V28.4H221.602V14.28H218.942ZM220.662 20.08V22.26H223.922V20.08H220.662ZM209.242 30.32V32.46H222.222V30.32H209.242ZM209.242 27.18V31.24H211.922V27.18H209.242ZM207.142 26C210.202 26 214.402 25.94 218.142 25.24L217.962 23.34C214.322 23.86 209.982 23.88 206.842 23.88L207.142 26ZM229.56 25.06V29.42H232.16V25.06H229.56ZM235.42 25.04V29.42H238.02V25.04H235.42ZM225.32 28.58V30.74H242.08V28.58H225.32ZM227.2 15.46V17.56H237.56V19.52H227.24V24.74H229.88V21.6H240.2V15.46H227.2ZM227.24 23.62V25.76H240.62V23.62H227.24Z" fill="white"/>
</g>
<defs>
<filter id="filter0_d_144_1094" x="0" y="0" width="448" height="56" filterUnits="userSpaceOnUse" color-interpolation-filters="sRGB">
<feFlood flood-opacity="0" result="BackgroundImageFix"/>
<feColorMatrix in="SourceAlpha" type="matrix" values="0 0 0 0 0 0 0 0 0 0 0 0 0 0 0 0 0 0 127 0" result="hardAlpha"/>
<feOffset dy="4"/>
<feGaussianBlur stdDeviation="2"/>
<feComposite in2="hardAlpha" operator="out"/>
<feColorMatrix type="matrix" values="0 0 0 0 0 0 0 0 0 0 0 0 0 0 0 0 0 0 0.25 0"/>
<feBlend mode="normal" in2="BackgroundImageFix" result="effect1_dropShadow_144_1094"/>
<feBlend mode="normal" in="SourceGraphic" in2="effect1_dropShadow_144_1094" result="shape"/>
</filter>
</defs>
</svg>
