<svg width="370" height="370" viewBox="0 0 370 370" fill="none" xmlns="http://www.w3.org/2000/svg">
<path d="M107.917 46.25H77.0833C68.9058 46.25 61.0632 49.4985 55.2809 55.2809C49.4985 61.0632 46.25 68.9058 46.25 77.0833V107.917M262.083 46.25H292.917C301.094 46.25 308.937 49.4985 314.719 55.2809C320.501 61.0632 323.75 68.9058 323.75 77.0833V107.917M246.667 123.333V154.167M123.333 123.333V154.167M138.75 246.667C138.75 246.667 154.167 262.083 185 262.083C215.833 262.083 231.25 246.667 231.25 246.667M185 123.333V200.417H169.583M107.917 323.75H77.0833C68.9058 323.75 61.0632 320.501 55.2809 314.719C49.4985 308.937 46.25 301.094 46.25 292.917V262.083M262.083 323.75H292.917C301.094 323.75 308.937 320.501 314.719 314.719C320.501 308.937 323.75 301.094 323.75 292.917V262.083" stroke="#4654A3" stroke-width="23.125" stroke-linecap="round" stroke-linejoin="round"/>
</svg>
