<svg width="459" height="83" viewBox="0 0 459 83" fill="none" xmlns="http://www.w3.org/2000/svg">
<g filter="url(#filter0_d_206_405)">
<rect x="455" width="75" height="451" rx="30" transform="rotate(90 455 0)" fill="white" shape-rendering="crispEdges"/>
<path d="M181.012 36.408V40.132H184.736V36.408H181.012ZM191.988 24.592V42.232H195.712V24.592H191.988ZM194.396 31.984V35.036H198.96V31.984H194.396ZM175.244 41.728C179.78 41.7 185.716 41.644 191.12 40.72L190.84 38.172C185.604 38.816 179.472 38.844 174.824 38.844L175.244 41.728ZM178.128 43.268V46.124H191.988V50.492H195.712V43.268H178.128ZM175.496 26.468V29.128H190.196V26.468H175.496ZM182.86 29.744C179.024 29.744 176.532 31.228 176.532 33.608C176.532 35.988 179.024 37.472 182.86 37.472C186.668 37.472 189.16 35.988 189.16 33.608C189.16 31.228 186.668 29.744 182.86 29.744ZM182.86 32.18C184.596 32.18 185.632 32.628 185.632 33.608C185.632 34.532 184.596 35.036 182.86 35.036C181.096 35.036 180.06 34.532 180.06 33.608C180.06 32.628 181.096 32.18 182.86 32.18ZM181.012 24.368V27.672H184.736V24.368H181.012ZM218.698 24.592V43.212H222.45V24.592H218.698ZM205.174 47.076V50.044H223.094V47.076H205.174ZM205.174 41.336V48.28H208.898V41.336H205.174ZM208.338 26.216C204.362 26.216 201.282 28.96 201.282 32.796C201.282 36.604 204.362 39.376 208.338 39.376C212.314 39.376 215.366 36.604 215.366 32.796C215.366 28.96 212.314 26.216 208.338 26.216ZM208.338 29.436C210.242 29.436 211.726 30.668 211.726 32.796C211.726 34.896 210.242 36.128 208.338 36.128C206.406 36.128 204.922 34.896 204.922 32.796C204.922 30.668 206.406 29.436 208.338 29.436ZM239.501 35.064V38.984H243.225V35.064H239.501ZM241.321 25.6C237.569 25.6 234.853 27.756 234.853 30.892C234.853 33.972 237.569 36.128 241.321 36.128C245.073 36.128 247.789 33.972 247.789 30.892C247.789 27.756 245.073 25.6 241.321 25.6ZM241.321 28.4C243.113 28.4 244.317 29.296 244.317 30.892C244.317 32.46 243.113 33.356 241.321 33.356C239.557 33.356 238.325 32.46 238.325 30.892C238.325 29.296 239.557 28.4 241.321 28.4ZM250.449 24.592V44.36H254.173V24.592H250.449ZM252.857 32.712V35.764H257.421V32.712H252.857ZM236.869 47.048V50.044H255.041V47.048H236.869ZM236.869 42.652V48.336H240.621V42.652H236.869ZM233.929 41C238.213 41 244.093 40.916 249.329 39.936L249.077 37.276C243.981 38.004 237.905 38.032 233.509 38.032L233.929 41ZM265.314 39.684V45.788H268.954V39.684H265.314ZM273.518 39.656V45.788H277.158V39.656H273.518ZM259.378 44.612V47.636H282.842V44.612H259.378ZM262.01 26.244V29.184H276.514V31.928H262.066V39.236H265.762V34.84H280.21V26.244H262.01ZM262.066 37.668V40.664H280.798V37.668H262.066Z" fill="#4654A3"/>
<rect x="454" y="1" width="73" height="449" rx="29" transform="rotate(90 454 1)" stroke="#4654A3" stroke-width="2" shape-rendering="crispEdges"/>
</g>
<defs>
<filter id="filter0_d_206_405" x="0" y="0" width="459" height="83" filterUnits="userSpaceOnUse" color-interpolation-filters="sRGB">
<feFlood flood-opacity="0" result="BackgroundImageFix"/>
<feColorMatrix in="SourceAlpha" type="matrix" values="0 0 0 0 0 0 0 0 0 0 0 0 0 0 0 0 0 0 127 0" result="hardAlpha"/>
<feOffset dy="4"/>
<feGaussianBlur stdDeviation="2"/>
<feComposite in2="hardAlpha" operator="out"/>
<feColorMatrix type="matrix" values="0 0 0 0 0 0 0 0 0 0 0 0 0 0 0 0 0 0 0.25 0"/>
<feBlend mode="normal" in2="BackgroundImageFix" result="effect1_dropShadow_206_405"/>
<feBlend mode="normal" in="SourceGraphic" in2="effect1_dropShadow_206_405" result="shape"/>
</filter>
</defs>
</svg>
