<svg width="100" height="100" viewBox="0 0 100 100" fill="none" xmlns="http://www.w3.org/2000/svg">
<g filter="url(#filter0_b_473_253)">
<circle cx="50" cy="50" r="50" fill="#D0C9DC"/>
</g>
<path d="M57.6667 28C59.1758 28.0002 60.6417 28.5047 61.8314 29.4332C63.0211 30.3617 63.8665 31.6611 64.2333 33.125L65.0354 36.3333H66.9375C67.3151 36.3333 67.6799 36.4701 67.9644 36.7183C68.249 36.9664 68.4341 37.3093 68.4854 37.6833L68.5 37.8958C68.5 38.2734 68.3632 38.6382 68.1151 38.9228C67.8669 39.2073 67.5241 39.3924 67.15 39.4437L66.9375 39.4583H65.8208L66.2542 41.1792C66.9428 41.5972 67.512 42.1856 67.9068 42.8878C68.3017 43.5899 68.5089 44.382 68.5083 45.1875V62.8896C68.5083 63.8565 68.1242 64.7838 67.4405 65.4676C66.7568 66.1513 65.8294 66.5354 64.8625 66.5354H61.7292C60.7622 66.5354 59.8349 66.1513 59.1512 65.4676C58.4674 64.7838 58.0833 63.8565 58.0833 62.8896L58.0812 60.2917H41.425V62.8896C41.425 63.8565 41.0409 64.7838 40.3572 65.4676C39.6734 66.1513 38.7461 66.5354 37.7792 66.5354H34.6458C33.6789 66.5354 32.7516 66.1513 32.0678 65.4676C31.3841 64.7838 31 63.8565 31 62.8896V45.1875C31 43.4896 31.9021 42.0021 33.2542 41.1812L33.6854 39.4583H32.5625C32.1849 39.4583 31.8201 39.3216 31.5356 39.0734C31.251 38.8252 31.0659 38.4824 31.0146 38.1083L31 37.8958C31 37.5183 31.1368 37.1535 31.3849 36.8689C31.6331 36.5843 31.9759 36.3993 32.35 36.3479L32.5625 36.3333H34.4646L35.2687 33.1292C35.6349 31.6641 36.4803 30.3636 37.6705 29.4342C38.8607 28.5048 40.3274 28 41.8375 28H57.6646H57.6667ZM38.2979 60.2917H34.1229L34.125 62.8896C34.125 63.1771 34.3583 63.4104 34.6458 63.4104H37.7792C37.9173 63.4104 38.0498 63.3555 38.1475 63.2579C38.2451 63.1602 38.3 63.0277 38.3 62.8896V60.2917H38.2979ZM65.3812 60.2917H61.2042L61.2062 62.8896C61.2062 63.1771 61.4396 63.4104 61.7271 63.4104H64.8604C64.9985 63.4104 65.131 63.3555 65.2287 63.2579C65.3264 63.1602 65.3812 63.0277 65.3812 62.8896V60.2917ZM63.8187 43.625H35.6875C35.2731 43.625 34.8757 43.7896 34.5826 44.0826C34.2896 44.3757 34.125 44.7731 34.125 45.1875V57.1667H65.3833V45.1875C65.3833 44.7731 65.2187 44.3757 64.9257 44.0826C64.6327 43.7896 64.2332 43.625 63.8187 43.625ZM46.1042 50.9167H53.4C53.7957 50.9173 54.1764 51.0681 54.4653 51.3385C54.7542 51.6089 54.9297 51.9789 54.9564 52.3737C54.9831 52.7685 54.859 53.1587 54.6092 53.4656C54.3594 53.7725 54.0024 53.9731 53.6104 54.0271L53.4 54.0417H46.1042C45.7083 54.0415 45.3272 53.8912 45.0379 53.6209C44.7487 53.3506 44.5728 52.9806 44.5458 52.5857C44.5188 52.1907 44.6427 51.8002 44.8926 51.4931C45.1424 51.186 45.4995 50.9852 45.8917 50.9312L46.1042 50.9167ZM60.1667 46.75C60.7192 46.75 61.2491 46.9695 61.6398 47.3602C62.0305 47.7509 62.25 48.2808 62.25 48.8333C62.25 49.3859 62.0305 49.9158 61.6398 50.3065C61.2491 50.6972 60.7192 50.9167 60.1667 50.9167C59.6141 50.9167 59.0842 50.6972 58.6935 50.3065C58.3028 49.9158 58.0833 49.3859 58.0833 48.8333C58.0833 48.2808 58.3028 47.7509 58.6935 47.3602C59.0842 46.9695 59.6141 46.75 60.1667 46.75ZM39.3333 46.75C39.8859 46.75 40.4158 46.9695 40.8065 47.3602C41.1972 47.7509 41.4167 48.2808 41.4167 48.8333C41.4167 49.3859 41.1972 49.9158 40.8065 50.3065C40.4158 50.6972 39.8859 50.9167 39.3333 50.9167C38.7808 50.9167 38.2509 50.6972 37.8602 50.3065C37.4695 49.9158 37.25 49.3859 37.25 48.8333C37.25 48.2808 37.4695 47.7509 37.8602 47.3602C38.2509 46.9695 38.7808 46.75 39.3333 46.75ZM57.6667 31.125H41.8354C41.0221 31.1249 40.2322 31.3968 39.5912 31.8974C38.9502 32.3979 38.495 33.0984 38.2979 33.8875L36.6479 40.5H62.8604L61.2021 33.8833C61.0042 33.0951 60.5487 32.3955 59.9078 31.8957C59.2668 31.396 58.4773 31.1247 57.6646 31.125H57.6667Z" fill="black"/>
<defs>
<filter id="filter0_b_473_253" x="-4" y="-4" width="108" height="108" filterUnits="userSpaceOnUse" color-interpolation-filters="sRGB">
<feFlood flood-opacity="0" result="BackgroundImageFix"/>
<feGaussianBlur in="BackgroundImageFix" stdDeviation="2"/>
<feComposite in2="SourceAlpha" operator="in" result="effect1_backgroundBlur_473_253"/>
<feBlend mode="normal" in="SourceGraphic" in2="effect1_backgroundBlur_473_253" result="shape"/>
</filter>
</defs>
</svg>
