<svg width="100" height="101" viewBox="0 0 100 101" fill="none" xmlns="http://www.w3.org/2000/svg">
<g filter="url(#filter0_b_181_1113)">
<circle cx="50" cy="50.1201" r="50" fill="#C8ACF5"/>
</g>
<path d="M57.6667 31.1201C59.1758 31.1204 60.6417 31.6248 61.8314 32.5533C63.0211 33.4818 63.8665 34.7812 64.2333 36.2451L65.0354 39.4535H66.9375C67.3151 39.4535 67.6799 39.5902 67.9644 39.8384C68.249 40.0866 68.4341 40.4294 68.4854 40.8034L68.5 41.016C68.5 41.3935 68.3632 41.7583 68.1151 42.0429C67.8669 42.3274 67.5241 42.5125 67.15 42.5639L66.9375 42.5785H65.8208L66.2542 44.2993C66.9428 44.7173 67.512 45.3057 67.9068 46.0079C68.3017 46.71 68.5089 47.5021 68.5083 48.3076V66.0097C68.5083 66.9766 68.1242 67.904 67.4405 68.5877C66.7568 69.2714 65.8294 69.6555 64.8625 69.6555H61.7292C60.7622 69.6555 59.8349 69.2714 59.1512 68.5877C58.4674 67.904 58.0833 66.9766 58.0833 66.0097L58.0812 63.4118H41.425V66.0097C41.425 66.9766 41.0409 67.904 40.3572 68.5877C39.6734 69.2714 38.7461 69.6555 37.7792 69.6555H34.6458C33.6789 69.6555 32.7516 69.2714 32.0678 68.5877C31.3841 67.904 31 66.9766 31 66.0097V48.3076C31 46.6097 31.9021 45.1222 33.2542 44.3014L33.6854 42.5785H32.5625C32.1849 42.5784 31.8201 42.4417 31.5356 42.1935C31.251 41.9453 31.0659 41.6025 31.0146 41.2285L31 41.016C31 40.6384 31.1368 40.2736 31.3849 39.989C31.6331 39.7045 31.9759 39.5194 32.35 39.468L32.5625 39.4535H34.4646L35.2687 36.2493C35.6349 34.7843 36.4803 33.4837 37.6705 32.5543C38.8607 31.6249 40.3274 31.1201 41.8375 31.1201H57.6646H57.6667ZM38.2979 63.4118H34.1229L34.125 66.0097C34.125 66.2972 34.3583 66.5305 34.6458 66.5305H37.7792C37.9173 66.5305 38.0498 66.4757 38.1475 66.378C38.2451 66.2803 38.3 66.1478 38.3 66.0097V63.4118H38.2979ZM65.3812 63.4118H61.2042L61.2062 66.0097C61.2062 66.2972 61.4396 66.5305 61.7271 66.5305H64.8604C64.9985 66.5305 65.131 66.4757 65.2287 66.378C65.3264 66.2803 65.3812 66.1478 65.3812 66.0097V63.4118ZM63.8187 46.7451H35.6875C35.2731 46.7451 34.8757 46.9097 34.5826 47.2028C34.2896 47.4958 34.125 47.8932 34.125 48.3076V60.2868H65.3833V48.3076C65.3833 47.8932 65.2187 47.4958 64.9257 47.2028C64.6327 46.9097 64.2332 46.7451 63.8187 46.7451ZM46.1042 54.0368H53.4C53.7957 54.0374 54.1764 54.1882 54.4653 54.4586C54.7542 54.7291 54.9297 55.099 54.9564 55.4938C54.9831 55.8886 54.859 56.2789 54.6092 56.5857C54.3594 56.8926 54.0024 57.0933 53.6104 57.1472L53.4 57.1618H46.1042C45.7083 57.1617 45.3272 57.0113 45.0379 56.741C44.7487 56.4707 44.5728 56.1007 44.5458 55.7058C44.5188 55.3108 44.6427 54.9203 44.8926 54.6132C45.1424 54.3061 45.4995 54.1053 45.8917 54.0514L46.1042 54.0368ZM60.1667 49.8701C60.7192 49.8701 61.2491 50.0896 61.6398 50.4803C62.0305 50.871 62.25 51.4009 62.25 51.9534C62.25 52.506 62.0305 53.0359 61.6398 53.4266C61.2491 53.8173 60.7192 54.0368 60.1667 54.0368C59.6141 54.0368 59.0842 53.8173 58.6935 53.4266C58.3028 53.0359 58.0833 52.506 58.0833 51.9534C58.0833 51.4009 58.3028 50.871 58.6935 50.4803C59.0842 50.0896 59.6141 49.8701 60.1667 49.8701ZM39.3333 49.8701C39.8859 49.8701 40.4158 50.0896 40.8065 50.4803C41.1972 50.871 41.4167 51.4009 41.4167 51.9534C41.4167 52.506 41.1972 53.0359 40.8065 53.4266C40.4158 53.8173 39.8859 54.0368 39.3333 54.0368C38.7808 54.0368 38.2509 53.8173 37.8602 53.4266C37.4695 53.0359 37.25 52.506 37.25 51.9534C37.25 51.4009 37.4695 50.871 37.8602 50.4803C38.2509 50.0896 38.7808 49.8701 39.3333 49.8701ZM57.6667 34.2451H41.8354C41.0221 34.2451 40.2322 34.5169 39.5912 35.0175C38.9502 35.518 38.495 36.2186 38.2979 37.0076L36.6479 43.6201H62.8604L61.2021 37.0035C61.0042 36.2152 60.5487 35.5156 59.9078 35.0158C59.2668 34.5161 58.4773 34.2448 57.6646 34.2451H57.6667Z" fill="black"/>
<defs>
<filter id="filter0_b_181_1113" x="-4" y="-3.87988" width="108" height="108" filterUnits="userSpaceOnUse" color-interpolation-filters="sRGB">
<feFlood flood-opacity="0" result="BackgroundImageFix"/>
<feGaussianBlur in="BackgroundImageFix" stdDeviation="2"/>
<feComposite in2="SourceAlpha" operator="in" result="effect1_backgroundBlur_181_1113"/>
<feBlend mode="normal" in="SourceGraphic" in2="effect1_backgroundBlur_181_1113" result="shape"/>
</filter>
</defs>
</svg>
