<svg width="100" height="100" viewBox="0 0 100 100" fill="none" xmlns="http://www.w3.org/2000/svg">
<g filter="url(#filter0_b_473_262)">
<circle cx="50" cy="50" r="50" fill="#D0C9DC"/>
</g>
<g clip-path="url(#clip0_473_262)">
<path d="M55.5106 52.1135C55.0762 51.0791 55.062 50.2458 55.2561 49.4091L35.6756 49.7435L35.4088 34.1208L48.0493 42.2394L60.4051 33.6938L60.4656 37.235C61.7047 36.5887 62.7463 36.5709 63.3712 36.5603C63.5759 36.3484 63.989 36.133 64.402 35.9176L64.2953 29.6685C64.4715 27.7902 62.9885 26.357 61.1138 26.389L34.451 26.8444C32.5763 26.8765 31.1431 28.3595 31.1751 30.2342L31.5238 50.6479C31.5558 52.5226 33.0388 53.9558 34.9136 53.9238L56.3688 53.5573C55.945 53.1479 55.7296 52.7348 55.5106 52.1135ZM60.3517 30.5693L47.9959 39.1149L35.3554 30.9963L60.3517 30.5693ZM76.4283 44.6718C75.9903 43.4291 74.9452 43.2386 74.3097 42.6243C73.8824 42.0066 73.861 40.7567 72.8088 40.1496C71.7531 39.3342 70.7187 39.7686 69.8819 39.5745C69.0452 39.3804 68.4025 38.3496 67.1526 38.371C65.9028 38.3923 65.2921 39.2362 64.466 39.667C63.6364 39.8896 62.5878 39.4907 61.5605 40.3417C60.5296 40.9844 60.7557 42.0224 60.1451 42.8663C59.5308 43.5019 58.4964 43.9363 58.0976 44.9849C57.7023 46.2418 58.5498 47.0608 58.564 47.894C58.5783 48.7272 57.7593 49.5747 58.1972 50.8174C58.6352 52.0601 59.6803 52.2506 60.3158 52.8648C60.7431 53.4826 60.7645 54.7324 61.8167 55.3396C62.8724 56.155 63.9068 55.7206 64.7436 55.9147C65.5803 56.1087 66.223 57.1396 67.4729 57.1182C68.7227 57.0969 69.3334 56.253 70.1594 55.8221C70.9891 55.5996 72.0377 55.9984 73.065 55.1474C74.0923 54.2964 74.0745 53.2549 74.4804 52.6229C75.0947 51.9873 76.1291 51.5529 76.5279 50.5043C76.9231 49.2473 76.0757 48.4284 76.0615 47.5952C76.0472 46.7619 76.8662 45.9145 76.4283 44.6718ZM67.423 54.202C63.8819 54.2625 61.1241 51.3925 61.0672 48.0596C61.0103 44.7268 63.8767 41.7607 67.2096 41.7038C70.5424 41.6469 73.5085 44.5133 73.5654 47.8462C73.6223 51.179 70.9642 54.1415 67.423 54.202ZM70.4373 47.6912C70.4658 49.3576 69.0325 50.8407 67.3661 50.8691C65.6997 50.8976 64.2167 49.4644 64.1882 47.798C64.1597 46.1315 65.593 44.6485 67.2594 44.62C68.9258 44.5916 70.4088 46.0248 70.4373 47.6912ZM70.2271 59.7799L69.2816 65.4219L68.1421 71.9006L63.9084 68.014L58.9483 70.3907L60.8285 58.4819C61.6688 58.8843 62.7139 59.0748 63.7554 59.057C64.3875 59.4629 65.2278 59.8653 65.8562 60.0629C66.2764 60.2641 66.9013 60.2534 67.5262 60.2428C68.5713 60.4333 69.401 60.2107 70.2271 59.7799ZM76.9781 64.6653L72.7872 63.2784L73.5421 58.6815L74.7813 58.0352L74.986 57.8233L76.9781 64.6653Z" fill="black"/>
</g>
<defs>
<filter id="filter0_b_473_262" x="-4" y="-4" width="108" height="108" filterUnits="userSpaceOnUse" color-interpolation-filters="sRGB">
<feFlood flood-opacity="0" result="BackgroundImageFix"/>
<feGaussianBlur in="BackgroundImageFix" stdDeviation="2"/>
<feComposite in2="SourceAlpha" operator="in" result="effect1_backgroundBlur_473_262"/>
<feBlend mode="normal" in="SourceGraphic" in2="effect1_backgroundBlur_473_262" result="shape"/>
</filter>
<clipPath id="clip0_473_262">
<rect width="50" height="50" fill="white" transform="translate(25 21.854) rotate(-0.978576)"/>
</clipPath>
</defs>
</svg>
