<svg width="51" height="51" viewBox="0 0 51 51" fill="none" xmlns="http://www.w3.org/2000/svg">
<path d="M34.8029 34.8031C34.9612 34.6449 35.0501 34.4303 35.0501 34.2065C35.0501 33.9827 34.9612 33.7681 34.8029 33.6099L26.6491 25.4561L34.8029 17.3022C34.9612 17.144 35.0501 16.9294 35.0501 16.7056C35.0501 16.4818 34.9612 16.2672 34.8029 16.109C34.6447 15.9508 34.4301 15.8619 34.2063 15.8619C33.9825 15.8619 33.7679 15.9508 33.6097 16.109L25.4559 24.2628L17.302 16.109C17.1438 15.9508 16.9292 15.8619 16.7054 15.8619C16.4816 15.8619 16.267 15.9508 16.1088 16.109C15.9506 16.2672 15.8617 16.4818 15.8617 16.7056C15.8617 16.9294 15.9506 17.144 16.1088 17.3022L24.2626 25.4561L16.1088 33.6099C15.9506 33.7681 15.8617 33.9827 15.8617 34.2065C15.8617 34.4303 15.9506 34.6449 16.1088 34.8031C16.267 34.9614 16.4816 35.0503 16.7054 35.0503C16.9292 35.0503 17.1438 34.9614 17.302 34.8031L25.4559 26.6493L33.6097 34.8031C33.7679 34.9614 33.9825 35.0503 34.2063 35.0503C34.4301 35.0503 34.6447 34.9614 34.8029 34.8031Z" fill="#292D32"/>
</svg>
