<svg width="100" height="100" viewBox="0 0 100 100" fill="none" xmlns="http://www.w3.org/2000/svg">
<g filter="url(#filter0_b_473_263)">
<circle cx="50" cy="50" r="50" fill="#C8ACF5"/>
</g>
<path d="M68.75 28.2451H50C49.1715 28.2459 48.3771 28.5755 47.7912 29.1613C47.2053 29.7472 46.8758 30.5416 46.875 31.3701V46.9951H31.25C30.4215 46.9959 29.6271 47.3255 29.0412 47.9113C28.4553 48.4972 28.1258 49.2916 28.125 50.1201V71.9951H71.875V31.3701C71.8742 30.5416 71.5447 29.7472 70.9588 29.1613C70.3729 28.5755 69.5785 28.2459 68.75 28.2451ZM39.0625 68.8701V57.9326H45.3125V68.8701H39.0625ZM68.75 68.8701H48.4375V56.3701C48.4375 55.9557 48.2729 55.5583 47.9799 55.2653C47.6868 54.9722 47.2894 54.8076 46.875 54.8076H37.5C37.0856 54.8076 36.6882 54.9722 36.3951 55.2653C36.1021 55.5583 35.9375 55.9557 35.9375 56.3701V68.8701H31.25V50.1201H50V31.3701H68.75V68.8701Z" fill="black"/>
<path d="M53.125 37.6201H56.25V40.7451H53.125V37.6201ZM62.5 37.6201H65.625V40.7451H62.5V37.6201ZM53.125 46.9951H56.25V50.1201H53.125V46.9951ZM62.5 46.9951H65.625V50.1201H62.5V46.9951ZM53.125 56.3701H56.25V59.4951H53.125V56.3701ZM62.5 56.3701H65.625V59.4951H62.5V56.3701Z" fill="black"/>
<defs>
<filter id="filter0_b_473_263" x="-4" y="-4" width="108" height="108" filterUnits="userSpaceOnUse" color-interpolation-filters="sRGB">
<feFlood flood-opacity="0" result="BackgroundImageFix"/>
<feGaussianBlur in="BackgroundImageFix" stdDeviation="2"/>
<feComposite in2="SourceAlpha" operator="in" result="effect1_backgroundBlur_473_263"/>
<feBlend mode="normal" in="SourceGraphic" in2="effect1_backgroundBlur_473_263" result="shape"/>
</filter>
</defs>
</svg>
