<svg width="100" height="100" viewBox="0 0 100 100" fill="none" xmlns="http://www.w3.org/2000/svg">
<g filter="url(#filter0_b_476_299)">
<circle cx="50" cy="50" r="50" fill="#C8ACF5"/>
</g>
<path d="M75 67.8979V31.3423C75 28.4701 72.5 26.1462 69.4444 26.1462L30.5556 26.1201C27.5 26.1201 25 28.4701 25 31.3423L25 67.8979C25 70.7701 27.5 73.1201 30.5556 73.1201H69.4444C72.5 73.1201 75 70.7701 75 67.8979ZM30.5556 67.8979L30.5556 31.3423L69.4444 31.3423V67.8979H30.5556ZM36.1111 45.7035V53.5368H45.8333V62.6757L54.1667 62.6757V53.5368H63.8889V45.7035H54.1667V36.5646H45.8333V45.7035H36.1111Z" fill="black"/>
<defs>
<filter id="filter0_b_476_299" x="-4" y="-4" width="108" height="108" filterUnits="userSpaceOnUse" color-interpolation-filters="sRGB">
<feFlood flood-opacity="0" result="BackgroundImageFix"/>
<feGaussianBlur in="BackgroundImageFix" stdDeviation="2"/>
<feComposite in2="SourceAlpha" operator="in" result="effect1_backgroundBlur_476_299"/>
<feBlend mode="normal" in="SourceGraphic" in2="effect1_backgroundBlur_476_299" result="shape"/>
</filter>
</defs>
</svg>
