<svg width="61" height="61" viewBox="0 0 61 61" fill="none" xmlns="http://www.w3.org/2000/svg">
<g filter="url(#filter0_d_498_251)">
<path d="M57 26.5C57 41.1355 45.1355 53 30.5 53C15.8645 53 4 41.1355 4 26.5C4 11.8645 15.8645 0 30.5 0C45.1355 0 57 11.8645 57 26.5Z" fill="white"/>
</g>
<path d="M30.8418 28.9585C32.5677 28.9585 33.9668 27.5594 33.9668 25.8335C33.9668 24.1076 32.5677 22.7085 30.8418 22.7085C29.1159 22.7085 27.7168 24.1076 27.7168 25.8335C27.7168 27.5594 29.1159 28.9585 30.8418 28.9585Z" fill="#F094A7"/>
<path d="M51.4462 22.3333L49.8004 17.0833C49.6227 16.4766 49.3246 15.9118 48.9239 15.4228C48.5232 14.9337 48.0281 14.5303 47.4682 14.2367C46.9082 13.9432 46.2949 13.7654 45.6647 13.7139C45.0346 13.6625 44.4005 13.7386 43.8004 13.9375L43.092 14.1667C42.5371 14.3501 41.9461 14.3966 41.3693 14.3023C40.7926 14.208 40.2471 13.9756 39.7796 13.625L39.5504 13.4583C39.0941 13.1091 38.7263 12.6575 38.4766 12.1401C38.2269 11.6226 38.1023 11.0536 38.1129 10.4792V9.89583C38.123 8.58755 37.6135 7.32873 36.6962 6.39583C36.2599 5.95511 35.7408 5.60492 35.1688 5.36538C34.5968 5.12584 33.983 5.00167 33.3629 5H28.0504C26.7758 5.01647 25.5592 5.53582 24.6657 6.44496C23.7722 7.35411 23.274 8.57944 23.2796 9.85417V10.3542C23.2776 10.9589 23.1399 11.5555 22.8767 12.0999C22.6134 12.6444 22.2314 13.1228 21.7587 13.5L21.4879 13.7083C20.9657 14.1034 20.3549 14.3649 19.7086 14.4702C19.0624 14.5755 18.4001 14.5214 17.7796 14.3125C17.2096 14.1153 16.6055 14.0357 16.0039 14.0787C15.4023 14.1217 14.8157 14.2863 14.2796 14.5625C13.7213 14.8396 13.2261 15.2285 12.8247 15.7052C12.4233 16.1819 12.1242 16.7361 11.9462 17.3333L10.2379 22.75C9.84172 23.9712 9.94332 25.2995 10.5206 26.4463C11.0979 27.593 12.1043 28.4658 13.3212 28.875H13.6546C14.2159 29.0854 14.7198 29.4252 15.1252 29.8668C15.5306 30.3084 15.8262 30.8394 15.9879 31.4167L16.1129 31.75C16.3451 32.3878 16.4228 33.0715 16.3395 33.7451C16.2562 34.4188 16.0143 35.063 15.6337 35.625C14.8633 36.6741 14.5384 37.985 14.7296 39.2725C14.9207 40.56 15.6126 41.72 16.6546 42.5L20.9671 45.7708C21.7836 46.3645 22.77 46.6787 23.7796 46.6667C24.0497 46.6931 24.3219 46.6931 24.5921 46.6667C25.2173 46.5456 25.8113 46.2985 26.3378 45.9403C26.8643 45.5821 27.3124 45.1204 27.6546 44.5833L28.1337 43.8958C28.4698 43.4137 28.9146 43.0173 29.4321 42.7386C29.9496 42.46 30.5253 42.3069 31.1129 42.2917C31.7286 42.2765 32.3382 42.4176 32.8846 42.7017C33.4311 42.9859 33.8967 43.4039 34.2379 43.9167L34.4879 44.2708C34.8431 44.7995 35.3028 45.2498 35.8386 45.5941C36.3744 45.9384 36.975 46.1694 37.6034 46.2728C38.2318 46.3762 38.8748 46.3499 39.4927 46.1955C40.1106 46.0411 40.6903 45.7619 41.1962 45.375L45.4254 42.2083C46.4253 41.4317 47.0903 40.302 47.284 39.0508C47.4777 37.7996 47.1854 36.5218 46.467 35.4792L45.9254 34.6875C45.5997 34.1842 45.3864 33.6166 45.3001 33.0233C45.2138 32.4301 45.2565 31.8252 45.4254 31.25C45.5975 30.6342 45.917 30.0697 46.3562 29.6051C46.7954 29.1404 47.3411 28.7898 47.9462 28.5833L48.3629 28.4375C49.5685 28.0191 50.5643 27.1484 51.1397 26.0093C51.715 24.8702 51.825 23.552 51.4462 22.3333ZM30.8421 33.125C29.3999 33.125 27.9901 32.6974 26.791 31.8961C25.5919 31.0949 24.6573 29.9561 24.1054 28.6237C23.5535 27.2914 23.4091 25.8252 23.6905 24.4108C23.9718 22.9964 24.6663 21.6971 25.6861 20.6773C26.7058 19.6576 28.0051 18.9631 29.4195 18.6818C30.834 18.4004 32.3001 18.5448 33.6325 19.0967C34.9648 19.6486 36.1036 20.5832 36.9049 21.7823C37.7061 22.9814 38.1337 24.3912 38.1337 25.8333C38.1337 27.7672 37.3655 29.6219 35.998 30.9893C34.6306 32.3568 32.7759 33.125 30.8421 33.125Z" fill="#F094A7"/>
<defs>
<filter id="filter0_d_498_251" x="0" y="0" width="61" height="61" filterUnits="userSpaceOnUse" color-interpolation-filters="sRGB">
<feFlood flood-opacity="0" result="BackgroundImageFix"/>
<feColorMatrix in="SourceAlpha" type="matrix" values="0 0 0 0 0 0 0 0 0 0 0 0 0 0 0 0 0 0 127 0" result="hardAlpha"/>
<feOffset dy="4"/>
<feGaussianBlur stdDeviation="2"/>
<feComposite in2="hardAlpha" operator="out"/>
<feColorMatrix type="matrix" values="0 0 0 0 0 0 0 0 0 0 0 0 0 0 0 0 0 0 0.25 0"/>
<feBlend mode="normal" in2="BackgroundImageFix" result="effect1_dropShadow_498_251"/>
<feBlend mode="normal" in="SourceGraphic" in2="effect1_dropShadow_498_251" result="shape"/>
</filter>
</defs>
</svg>
