<svg width="100" height="101" viewBox="0 0 100 101" fill="none" xmlns="http://www.w3.org/2000/svg">
<g filter="url(#filter0_b_473_276)">
<circle cx="50" cy="51" r="50" fill="#D0C9DC"/>
</g>
<path d="M29.25 30H69.75C70.3467 30 70.919 30.2341 71.341 30.6509C71.7629 31.0676 72 31.6329 72 32.2222V67.7778C72 68.3671 71.7629 68.9324 71.341 69.3491C70.919 69.7659 70.3467 70 69.75 70H29.25C28.6533 70 28.081 69.7659 27.659 69.3491C27.2371 68.9324 27 68.3671 27 67.7778V32.2222C27 31.6329 27.2371 31.0676 27.659 30.6509C28.081 30.2341 28.6533 30 29.25 30ZM31.5 34.4444V65.5556H67.5V34.4444H31.5ZM41.625 54.4444H54C54.2984 54.4444 54.5845 54.3274 54.7955 54.119C55.0065 53.9106 55.125 53.628 55.125 53.3333C55.125 53.0386 55.0065 52.756 54.7955 52.5477C54.5845 52.3393 54.2984 52.2222 54 52.2222H45C43.5082 52.2222 42.0774 51.6369 41.0225 50.595C39.9676 49.5532 39.375 48.1401 39.375 46.6667C39.375 45.1932 39.9676 43.7802 41.0225 42.7383C42.0774 41.6964 43.5082 41.1111 45 41.1111H47.25V36.6667H51.75V41.1111H57.375V45.5556H45C44.7016 45.5556 44.4155 45.6726 44.2045 45.881C43.9935 46.0894 43.875 46.372 43.875 46.6667C43.875 46.9614 43.9935 47.244 44.2045 47.4523C44.4155 47.6607 44.7016 47.7778 45 47.7778H54C55.4918 47.7778 56.9226 48.3631 57.9775 49.405C59.0324 50.4468 59.625 51.8599 59.625 53.3333C59.625 54.8068 59.0324 56.2198 57.9775 57.2617C56.9226 58.3036 55.4918 58.8889 54 58.8889H51.75V63.3333H47.25V58.8889H41.625V54.4444Z" fill="black"/>
<defs>
<filter id="filter0_b_473_276" x="-4" y="-3" width="108" height="108" filterUnits="userSpaceOnUse" color-interpolation-filters="sRGB">
<feFlood flood-opacity="0" result="BackgroundImageFix"/>
<feGaussianBlur in="BackgroundImageFix" stdDeviation="2"/>
<feComposite in2="SourceAlpha" operator="in" result="effect1_backgroundBlur_473_276"/>
<feBlend mode="normal" in="SourceGraphic" in2="effect1_backgroundBlur_473_276" result="shape"/>
</filter>
</defs>
</svg>
