<svg width="100" height="101" viewBox="0 0 100 101" fill="none" xmlns="http://www.w3.org/2000/svg">
<g filter="url(#filter0_b_181_1125)">
<circle cx="50" cy="50.1201" r="50" fill="#C8ACF5"/>
</g>
<path d="M29.25 30.1201H69.75C70.3467 30.1201 70.919 30.3542 71.341 30.771C71.7629 31.1877 72 31.753 72 32.3423V67.8979C72 68.4873 71.7629 69.0525 71.341 69.4692C70.919 69.886 70.3467 70.1201 69.75 70.1201H29.25C28.6533 70.1201 28.081 69.886 27.659 69.4692C27.2371 69.0525 27 68.4873 27 67.8979V32.3423C27 31.753 27.2371 31.1877 27.659 30.771C28.081 30.3542 28.6533 30.1201 29.25 30.1201ZM31.5 34.5646V65.6757H67.5V34.5646H31.5ZM41.625 54.5646H54C54.2984 54.5646 54.5845 54.4475 54.7955 54.2391C55.0065 54.0308 55.125 53.7481 55.125 53.4535C55.125 53.1588 55.0065 52.8762 54.7955 52.6678C54.5845 52.4594 54.2984 52.3423 54 52.3423H45C43.5082 52.3423 42.0774 51.757 41.0225 50.7152C39.9676 49.6733 39.375 48.2602 39.375 46.7868C39.375 45.3134 39.9676 43.9003 41.0225 42.8584C42.0774 41.8165 43.5082 41.2312 45 41.2312H47.25V36.7868H51.75V41.2312H57.375V45.6757H45C44.7016 45.6757 44.4155 45.7927 44.2045 46.0011C43.9935 46.2095 43.875 46.4921 43.875 46.7868C43.875 47.0815 43.9935 47.3641 44.2045 47.5725C44.4155 47.7808 44.7016 47.8979 45 47.8979H54C55.4918 47.8979 56.9226 48.4832 57.9775 49.5251C59.0324 50.5669 59.625 51.98 59.625 53.4535C59.625 54.9269 59.0324 56.34 57.9775 57.3818C56.9226 58.4237 55.4918 59.009 54 59.009H51.75V63.4535H47.25V59.009H41.625V54.5646Z" fill="black"/>
<defs>
<filter id="filter0_b_181_1125" x="-4" y="-3.87988" width="108" height="108" filterUnits="userSpaceOnUse" color-interpolation-filters="sRGB">
<feFlood flood-opacity="0" result="BackgroundImageFix"/>
<feGaussianBlur in="BackgroundImageFix" stdDeviation="2"/>
<feComposite in2="SourceAlpha" operator="in" result="effect1_backgroundBlur_181_1125"/>
<feBlend mode="normal" in="SourceGraphic" in2="effect1_backgroundBlur_181_1125" result="shape"/>
</filter>
</defs>
</svg>
