<svg width="100" height="101" viewBox="0 0 100 101" fill="none" xmlns="http://www.w3.org/2000/svg">
<g filter="url(#filter0_b_181_1121)">
<circle cx="50" cy="50.1201" r="50" fill="#C8ACF5"/>
</g>
<path d="M37.5 40.1201C37.5001 38.4491 37.9189 36.8048 38.7182 35.3374C39.5174 33.87 40.6717 32.6262 42.0754 31.7198C43.4791 30.8134 45.0877 30.2731 46.754 30.1485C48.4203 30.0238 50.0913 30.3187 51.6143 31.0062C53.1372 31.6936 54.4637 32.7518 55.4724 34.084C56.4811 35.4161 57.1399 36.9798 57.3886 38.6322C57.6373 40.2845 57.468 41.9728 56.8962 43.5429C56.3243 45.113 55.3681 46.5147 54.115 47.6201H53.7825C51.775 47.6201 49.9875 48.5626 48.835 50.0326C47.4216 50.2229 45.9839 50.1088 44.6182 49.6978C43.2526 49.2868 41.9906 48.5885 40.9171 47.6497C39.8435 46.7109 38.9832 45.5533 38.3938 44.2546C37.8045 42.9559 37.4997 41.5462 37.5 40.1201ZM47.5 32.6201C45.5109 32.6201 43.6032 33.4102 42.1967 34.8168C40.7902 36.2233 40 38.1309 40 40.1201C40 42.1092 40.7902 44.0168 42.1967 45.4234C43.6032 46.8299 45.5109 47.6201 47.5 47.6201C49.4891 47.6201 51.3968 46.8299 52.8033 45.4234C54.2098 44.0168 55 42.1092 55 40.1201C55 38.1309 54.2098 36.2233 52.8033 34.8168C51.3968 33.4102 49.4891 32.6201 47.5 32.6201ZM47.6325 52.6201H35.0225C34.3641 52.6174 33.7116 52.7448 33.1026 52.9949C32.4935 53.2449 31.9398 53.6128 31.4731 54.0773C31.0065 54.5418 30.6362 55.0939 30.3834 55.7018C30.1306 56.3098 30.0003 56.9616 30 57.6201C30 61.8476 32.0825 65.0351 35.3375 67.1126C38.5425 69.1551 42.8625 70.1201 47.5 70.1201C49.5075 70.1201 51.4575 69.9401 53.2825 69.5701L51.1475 67.3901C49.9875 67.5451 48.7675 67.6201 47.5 67.6201C43.1625 67.6201 39.3575 66.7101 36.6825 65.0026C34.0575 63.3276 32.5 60.8951 32.5 57.6201C32.5 56.2376 33.62 55.1201 35.0225 55.1201H47.4975V53.9101C47.4975 53.4676 47.5475 53.0351 47.6325 52.6201ZM50 61.0951C50 62.0876 50.3875 63.0376 51.08 63.7451L58.665 71.4876C60.115 72.9676 62.4825 73.0026 63.975 71.5651L71.3425 64.4726C71.7033 64.1246 71.9914 63.7085 72.1901 63.2483C72.3888 62.7881 72.4941 62.2931 72.4999 61.7919C72.5057 61.2907 72.4119 60.7933 72.224 60.3286C72.036 59.864 71.7576 59.4413 71.405 59.0851L63.6375 51.2376C63.2867 50.8835 62.8693 50.6024 62.4093 50.4106C61.9493 50.2188 61.4559 50.1201 60.9575 50.1201H53.775C53.2788 50.1201 52.7875 50.2179 52.3292 50.4079C51.8709 50.5979 51.4545 50.8764 51.1039 51.2275C50.7533 51.5786 50.4753 51.9953 50.2859 52.4539C50.0965 52.9125 49.9993 53.4039 50 53.9001V61.0951ZM56.875 58.8701C56.3777 58.8701 55.9008 58.6725 55.5492 58.3209C55.1975 57.9693 55 57.4923 55 56.9951C55 56.4978 55.1975 56.0209 55.5492 55.6692C55.9008 55.3176 56.3777 55.1201 56.875 55.1201C57.3723 55.1201 57.8492 55.3176 58.2008 55.6692C58.5525 56.0209 58.75 56.4978 58.75 56.9951C58.75 57.4923 58.5525 57.9693 58.2008 58.3209C57.8492 58.6725 57.3723 58.8701 56.875 58.8701Z" fill="black"/>
<defs>
<filter id="filter0_b_181_1121" x="-4" y="-3.87988" width="108" height="108" filterUnits="userSpaceOnUse" color-interpolation-filters="sRGB">
<feFlood flood-opacity="0" result="BackgroundImageFix"/>
<feGaussianBlur in="BackgroundImageFix" stdDeviation="2"/>
<feComposite in2="SourceAlpha" operator="in" result="effect1_backgroundBlur_181_1121"/>
<feBlend mode="normal" in="SourceGraphic" in2="effect1_backgroundBlur_181_1121" result="shape"/>
</filter>
</defs>
</svg>
