<svg width="100" height="100" viewBox="0 0 100 100" fill="none" xmlns="http://www.w3.org/2000/svg">
<g filter="url(#filter0_b_473_269)">
<circle cx="50" cy="50" r="50" fill="#D0C9DC"/>
</g>
<path d="M39.5 37.9995C39.5001 36.3285 39.9189 34.6842 40.7182 33.2168C41.5174 31.7494 42.6717 30.5056 44.0754 29.5992C45.4792 28.6928 47.0877 28.1525 48.754 28.0279C50.4203 27.9032 52.0913 28.1981 53.6143 28.8856C55.1372 29.573 56.4637 30.6312 57.4724 31.9634C58.4811 33.2955 59.1399 34.8592 59.3886 36.5116C59.6373 38.1639 59.468 39.8522 58.8962 41.4223C58.3243 42.9924 57.3681 44.3941 56.115 45.4995H55.7825C53.775 45.4995 51.9875 46.442 50.835 47.912C49.4216 48.1023 47.9839 47.9882 46.6182 47.5772C45.2526 47.1662 43.9906 46.4679 42.9171 45.5291C41.8435 44.5903 40.9832 43.4327 40.3938 42.134C39.8045 40.8353 39.4997 39.4256 39.5 37.9995ZM49.5 30.4995C47.5109 30.4995 45.6032 31.2896 44.1967 32.6962C42.7902 34.1027 42 36.0103 42 37.9995C42 39.9886 42.7902 41.8962 44.1967 43.3028C45.6032 44.7093 47.5109 45.4995 49.5 45.4995C51.4891 45.4995 53.3968 44.7093 54.8033 43.3028C56.2098 41.8962 57 39.9886 57 37.9995C57 36.0103 56.2098 34.1027 54.8033 32.6962C53.3968 31.2896 51.4891 30.4995 49.5 30.4995ZM49.6325 50.4995H37.0225C36.3641 50.4968 35.7116 50.6242 35.1026 50.8743C34.4935 51.1243 33.9398 51.4922 33.4731 51.9567C33.0065 52.4212 32.6362 52.9733 32.3834 53.5812C32.1306 54.1892 32.0003 54.841 32 55.4995C32 59.727 34.0825 62.9145 37.3375 64.992C40.5425 67.0345 44.8625 67.9995 49.5 67.9995C51.5075 67.9995 53.4575 67.8195 55.2825 67.4495L53.1475 65.2695C51.9875 65.4245 50.7675 65.4995 49.5 65.4995C45.1625 65.4995 41.3575 64.5895 38.6825 62.882C36.0575 61.207 34.5 58.7745 34.5 55.4995C34.5 54.117 35.62 52.9995 37.0225 52.9995H49.4975V51.7895C49.4975 51.347 49.5475 50.9145 49.6325 50.4995ZM52 58.9745C52 59.967 52.3875 60.917 53.08 61.6245L60.665 69.367C62.115 70.847 64.4825 70.882 65.975 69.4445L73.3425 62.352C73.7033 62.004 73.9914 61.5879 74.1901 61.1277C74.3888 60.6675 74.4941 60.1725 74.4999 59.6713C74.5057 59.1701 74.4119 58.6727 74.224 58.208C74.036 57.7434 73.7576 57.3207 73.405 56.9645L65.6375 49.117C65.2867 48.7629 64.8693 48.4818 64.4093 48.29C63.9493 48.0982 63.4559 47.9995 62.9575 47.9995H55.775C55.2788 47.9995 54.7875 48.0973 54.3292 48.2873C53.8709 48.4773 53.4545 48.7558 53.1039 49.1069C52.7533 49.458 52.4753 49.8747 52.2859 50.3333C52.0965 50.7919 51.9993 51.2833 52 51.7795V58.9745ZM58.875 56.7495C58.3777 56.7495 57.9008 56.5519 57.5492 56.2003C57.1975 55.8486 57 55.3717 57 54.8745C57 54.3772 57.1975 53.9003 57.5492 53.5486C57.9008 53.197 58.3777 52.9995 58.875 52.9995C59.3723 52.9995 59.8492 53.197 60.2008 53.5486C60.5525 53.9003 60.75 54.3772 60.75 54.8745C60.75 55.3717 60.5525 55.8486 60.2008 56.2003C59.8492 56.5519 59.3723 56.7495 58.875 56.7495Z" fill="black"/>
<defs>
<filter id="filter0_b_473_269" x="-4" y="-4" width="108" height="108" filterUnits="userSpaceOnUse" color-interpolation-filters="sRGB">
<feFlood flood-opacity="0" result="BackgroundImageFix"/>
<feGaussianBlur in="BackgroundImageFix" stdDeviation="2"/>
<feComposite in2="SourceAlpha" operator="in" result="effect1_backgroundBlur_473_269"/>
<feBlend mode="normal" in="SourceGraphic" in2="effect1_backgroundBlur_473_269" result="shape"/>
</filter>
</defs>
</svg>
