<svg width="14" height="21" viewBox="0 0 14 21" fill="none" xmlns="http://www.w3.org/2000/svg">
<path d="M7 19.3041C6.81784 19.0918 6.57654 18.8056 6.29404 18.4585C5.64425 17.6601 4.77868 16.5426 3.91411 15.2648C3.04858 13.9856 2.19025 12.5549 1.54983 11.1294C0.906463 9.69739 0.5 8.30759 0.5 7.10027C0.5 3.51872 3.4048 0.620117 7 0.620117C10.5952 0.620117 13.5 3.51872 13.5 7.10027C13.5 8.30759 13.0935 9.69739 12.4502 11.1294C11.8098 12.5549 10.9514 13.9856 10.0859 15.2648C9.22132 16.5426 8.35575 17.6601 7.70596 18.4585C7.42346 18.8056 7.18216 19.0918 7 19.3041ZM4.87918 9.21708C5.4419 9.7782 6.20481 10.0932 7 10.0932C7.79519 10.0932 8.5581 9.7782 9.12082 9.21708C9.68358 8.65591 10 7.8945 10 7.10027C10 6.30604 9.68358 5.54463 9.12082 4.98346C8.5581 4.42234 7.79519 4.10736 7 4.10736C6.20481 4.10736 5.4419 4.42234 4.87918 4.98346C4.31642 5.54463 4 6.30604 4 7.10027C4 7.8945 4.31642 8.65591 4.87918 9.21708Z" fill="white" stroke="#A09999"/>
</svg>
