<svg width="26" height="27" viewBox="0 0 26 27" fill="none" xmlns="http://www.w3.org/2000/svg">
<path fill-rule="evenodd" clip-rule="evenodd" d="M19.8083 20.8309C20.0738 20.8321 20.3288 20.9346 20.5213 21.1175C20.7138 21.3004 20.8291 21.5499 20.8438 21.815C20.8585 22.0801 20.7714 22.3408 20.6003 22.5438C20.4292 22.7468 20.1871 22.8769 19.9233 22.9074L19.8014 22.9143L12.5098 22.8902C12.2443 22.889 11.9893 22.7865 11.7968 22.6036C11.6044 22.4208 11.489 22.1713 11.4743 21.9062C11.4596 21.6411 11.5467 21.3804 11.7178 21.1774C11.8889 20.9743 12.131 20.8443 12.3948 20.8138L12.5167 20.8069L19.8083 20.8309ZM16.8336 5.57938C17.3122 5.10419 17.9565 4.83322 18.6309 4.82352C19.3053 4.81382 19.9571 5.06613 20.4492 5.52736C20.9413 5.98858 21.2353 6.62274 21.2692 7.29634C21.3032 7.96994 21.0745 8.63044 20.6312 9.1388L20.5037 9.2738L9.11635 20.5874C9.01683 20.6863 8.90443 20.7715 8.78218 20.8404L8.65698 20.9025L4.68855 22.6915C3.84563 23.071 2.98375 22.2515 3.27089 21.4108L3.3129 21.3068L5.12805 17.3492C5.18623 17.2219 5.26125 17.103 5.35109 16.9958L5.44518 16.8919L16.8336 5.57938ZM19.0381 7.05958C18.9521 6.97317 18.8385 6.91969 18.7171 6.90844C18.5956 6.89719 18.4741 6.92889 18.3737 6.99801L18.3016 7.05715L6.98116 18.3032L6.36317 19.6522L7.71519 19.0421L19.0357 7.79707C19.0843 7.74885 19.123 7.69151 19.1495 7.62832C19.1759 7.56513 19.1897 7.49734 19.1899 7.42883C19.1901 7.36032 19.1768 7.29244 19.1508 7.22908C19.1247 7.16572 19.0864 7.10812 19.0381 7.05958Z" fill="black"/>
</svg>
