<svg width="61" height="60" viewBox="0 0 61 60" fill="none" xmlns="http://www.w3.org/2000/svg">
<circle cx="30.393" cy="29.7738" r="29.7738" fill="#F2EAF2"/>
<path d="M21.0146 42.8799L46.125 32.2998C46.3846 32.1911 46.6059 32.0098 46.7615 31.7785C46.9171 31.5471 47 31.2759 47 30.9985C47 30.7212 46.9171 30.45 46.7615 30.2186C46.6059 29.9872 46.3846 29.8059 46.125 29.6972L21.0146 19.1171C20.7972 19.0239 20.5595 18.9854 20.3232 19.005C20.0868 19.0246 19.8591 19.1017 19.6606 19.2294C19.4622 19.3571 19.2992 19.5314 19.1864 19.7365C19.0735 19.9416 19.0144 20.1711 19.0144 20.4043L19 26.9249C19 27.6321 19.5324 28.2404 20.2519 28.3252L40.5849 30.9985L20.2519 33.6577C19.5324 33.7567 19 34.3649 19 35.0722L19.0144 41.5928C19.0144 42.597 20.0649 43.2901 21.0146 42.8799Z" fill="#364C63"/>
</svg>
