<svg width="28" height="24" viewBox="0 0 28 24" fill="none" xmlns="http://www.w3.org/2000/svg">
<path d="M2.01459 23.8799L27.125 13.2998C27.3846 13.1911 27.6059 13.0098 27.7615 12.7785C27.9171 12.5471 28 12.2759 28 11.9985C28 11.7212 27.9171 11.45 27.7615 11.2186C27.6059 10.9872 27.3846 10.8059 27.125 10.6972L2.01459 0.117135C1.79716 0.0239153 1.55954 -0.0146308 1.32316 0.00497386C1.08679 0.0245786 0.859103 0.101717 0.660638 0.229432C0.462174 0.357146 0.299178 0.531418 0.186356 0.736524C0.0735338 0.941631 0.0144345 1.17112 0.0143899 1.40429L0 7.92491C0 8.63214 0.532426 9.24035 1.25192 9.32522L21.5849 11.9985L1.25192 14.6577C0.532426 14.7567 0 15.3649 0 16.0722L0.0143899 22.5928C0.0143899 23.5971 1.06485 24.2901 2.01459 23.8799Z" fill="#364C63"/>
</svg>
