<svg width="14" height="19" viewBox="0 0 14 19" fill="none" xmlns="http://www.w3.org/2000/svg">
<path d="M8.58358 9.98602L1.02583 16.034C0.628197 16.3541 0.405005 16.7871 0.405005 17.2384C0.405005 17.6898 0.628197 18.1228 1.02583 18.4429C1.22431 18.603 1.46044 18.7301 1.7206 18.8169C1.98076 18.9036 2.25981 18.9482 2.54165 18.9482C2.82349 18.9482 3.10255 18.9036 3.36271 18.8169C3.62287 18.7301 3.859 18.603 4.05747 18.4429L13.1097 11.199C13.3098 11.0402 13.4686 10.8512 13.577 10.643C13.6854 10.4349 13.7412 10.2116 13.7412 9.98602C13.7412 9.76048 13.6854 9.53717 13.577 9.32898C13.4686 9.12079 13.3098 8.93183 13.1097 8.77301L4.05747 1.44373C3.85798 1.28538 3.6214 1.16011 3.36128 1.07509C3.10116 0.99007 2.82263 0.946971 2.54165 0.948271C2.26068 0.946971 1.98215 0.99007 1.72203 1.07509C1.46191 1.16011 1.22533 1.28538 1.02583 1.44373C0.628197 1.76383 0.405005 2.19684 0.405005 2.64819C0.405005 3.09954 0.628197 3.53255 1.02583 3.85265L8.58358 9.98602Z" fill="#8E98A2"/>
</svg>
