<svg width="1478" height="939" viewBox="0 0 1478 939" fill="none" xmlns="http://www.w3.org/2000/svg">
<mask id="path-1-inside-1_461_323" fill="white">
<path fill-rule="evenodd" clip-rule="evenodd" d="M444.358 426.676V426.476L740.827 597.643L444.485 768.736V768.936L148.016 597.77L444.358 426.676Z"/>
</mask>
<path d="M444.358 426.476L446.358 423.012L440.358 419.548V426.476H444.358ZM444.358 426.676L446.358 430.14L448.358 428.986V426.676H444.358ZM740.827 597.643L742.827 601.107L748.827 597.643L742.827 594.179L740.827 597.643ZM444.485 768.736L442.485 765.272L440.485 766.427V768.736H444.485ZM444.485 768.936L442.485 772.4L448.485 775.864V768.936H444.485ZM148.016 597.77L146.016 594.305L140.016 597.77L146.016 601.234L148.016 597.77ZM440.358 426.476V426.676H448.358V426.476H440.358ZM742.827 594.179L446.358 423.012L442.358 429.94L738.827 601.107L742.827 594.179ZM446.485 772.2L742.827 601.107L738.827 594.179L442.485 765.272L446.485 772.2ZM440.485 768.736V768.936H448.485V768.736H440.485ZM446.485 765.472L150.016 594.305L146.016 601.234L442.485 772.4L446.485 765.472ZM150.016 601.234L446.358 430.14L442.358 423.212L146.016 594.305L150.016 601.234Z" fill="#F59FB1" mask="url(#path-1-inside-1_461_323)"/>
<mask id="path-3-inside-2_461_323" fill="white">
<path fill-rule="evenodd" clip-rule="evenodd" d="M443.558 427.88L443.385 427.98L443.385 85.6468L739.728 256.74L739.901 256.64L739.901 598.973L443.558 427.88Z"/>
</mask>
<path fill-rule="evenodd" clip-rule="evenodd" d="M443.558 427.88L443.385 427.98L443.385 85.6468L739.728 256.74L739.901 256.64L739.901 598.973L443.558 427.88Z" fill="#4654A3"/>
<path d="M443.385 427.98L439.385 427.98L439.385 434.908L445.385 431.444L443.385 427.98ZM443.558 427.88L445.558 424.416L443.558 423.261L441.558 424.416L443.558 427.88ZM443.385 85.6468L445.385 82.1827L439.385 78.7186L439.385 85.6468L443.385 85.6468ZM739.728 256.74L737.728 260.204L739.728 261.359L741.728 260.204L739.728 256.74ZM739.901 256.64L743.901 256.64L743.901 249.712L737.901 253.176L739.901 256.64ZM739.901 598.973L737.901 602.437L743.901 605.902L743.901 598.973L739.901 598.973ZM445.385 431.444L445.558 431.344L441.558 424.416L441.385 424.516L445.385 431.444ZM439.385 85.6468L439.385 427.98L447.385 427.98L447.385 85.6468L439.385 85.6468ZM741.728 253.276L445.385 82.1827L441.385 89.1109L737.728 260.204L741.728 253.276ZM741.728 260.204L741.901 260.105L737.901 253.176L737.728 253.276L741.728 260.204ZM735.901 256.64L735.901 598.973L743.901 598.973L743.901 256.64L735.901 256.64ZM741.901 595.509L445.558 424.416L441.558 431.344L737.901 602.437L741.901 595.509Z" fill="#4654A3" mask="url(#path-3-inside-2_461_323)"/>
<mask id="path-5-inside-3_461_323" fill="white">
<path fill-rule="evenodd" clip-rule="evenodd" d="M1033.42 427.88L1033.25 427.98L1033.25 85.6467L1329.59 256.74L1329.76 256.64L1329.76 598.973L1033.42 427.88Z"/>
</mask>
<path fill-rule="evenodd" clip-rule="evenodd" d="M1033.42 427.88L1033.25 427.98L1033.25 85.6467L1329.59 256.74L1329.76 256.64L1329.76 598.973L1033.42 427.88Z" fill="#4654A3"/>
<path d="M1033.25 427.98L1029.25 427.98L1029.25 434.908L1035.25 431.444L1033.25 427.98ZM1033.42 427.88L1035.42 424.416L1033.42 423.261L1031.42 424.416L1033.42 427.88ZM1033.25 85.6467L1035.25 82.1826L1029.25 78.7185L1029.25 85.6467L1033.25 85.6467ZM1329.59 256.74L1327.59 260.204L1329.59 261.359L1331.59 260.204L1329.59 256.74ZM1329.76 256.64L1333.76 256.64L1333.76 249.712L1327.76 253.176L1329.76 256.64ZM1329.76 598.973L1327.76 602.437L1333.76 605.901L1333.76 598.973L1329.76 598.973ZM1035.25 431.444L1035.42 431.344L1031.42 424.416L1031.25 424.516L1035.25 431.444ZM1029.25 85.6467L1029.25 427.98L1037.25 427.98L1037.25 85.6467L1029.25 85.6467ZM1331.59 253.276L1035.25 82.1826L1031.25 89.1108L1327.59 260.204L1331.59 253.276ZM1331.59 260.204L1331.76 260.104L1327.76 253.176L1327.59 253.276L1331.59 260.204ZM1325.76 256.64L1325.76 598.973L1333.76 598.973L1333.76 256.64L1325.76 256.64ZM1331.76 595.509L1035.42 424.416L1031.42 431.344L1327.76 602.437L1331.76 595.509Z" fill="#4654A3" mask="url(#path-5-inside-3_461_323)"/>
<mask id="path-7-inside-4_461_323" fill="white">
<path fill-rule="evenodd" clip-rule="evenodd" d="M1035.32 427.88L1035.49 427.98L1035.49 85.6467L739.149 256.74L738.976 256.64L738.976 598.973L1035.32 427.88Z"/>
</mask>
<path fill-rule="evenodd" clip-rule="evenodd" d="M1035.32 427.88L1035.49 427.98L1035.49 85.6467L739.149 256.74L738.976 256.64L738.976 598.973L1035.32 427.88Z" fill="#F95B3D"/>
<path d="M1035.49 427.98L1039.49 427.98L1039.49 434.908L1033.49 431.444L1035.49 427.98ZM1035.32 427.88L1033.32 424.416L1035.32 423.261L1037.32 424.416L1035.32 427.88ZM1035.49 85.6467L1033.49 82.1826L1039.49 78.7185L1039.49 85.6467L1035.49 85.6467ZM739.149 256.74L741.149 260.204L739.149 261.359L737.149 260.204L739.149 256.74ZM738.976 256.64L734.976 256.64L734.976 249.712L740.976 253.176L738.976 256.64ZM738.976 598.973L740.976 602.437L734.976 605.901L734.976 598.973L738.976 598.973ZM1033.49 431.444L1033.32 431.344L1037.32 424.416L1037.49 424.516L1033.49 431.444ZM1039.49 85.6467L1039.49 427.98L1031.49 427.98L1031.49 85.6467L1039.49 85.6467ZM737.149 253.276L1033.49 82.1826L1037.49 89.1108L741.149 260.204L737.149 253.276ZM737.149 260.204L736.976 260.104L740.976 253.176L741.149 253.276L737.149 260.204ZM742.976 256.64L742.976 598.973L734.976 598.973L734.976 256.64L742.976 256.64ZM736.976 595.509L1033.32 424.416L1037.32 431.344L740.976 602.437L736.976 595.509Z" fill="#F95B3D" mask="url(#path-7-inside-4_461_323)"/>
<mask id="path-9-inside-5_461_323" fill="white">
<path fill-rule="evenodd" clip-rule="evenodd" d="M444.576 427.88L444.749 427.98L444.749 85.6467L148.407 256.74L148.234 256.64L148.234 598.973L444.576 427.88Z"/>
</mask>
<path fill-rule="evenodd" clip-rule="evenodd" d="M444.576 427.88L444.749 427.98L444.749 85.6467L148.407 256.74L148.234 256.64L148.234 598.973L444.576 427.88Z" fill="#F95B3D"/>
<path d="M444.749 427.98L448.749 427.98L448.749 434.908L442.749 431.444L444.749 427.98ZM444.576 427.88L442.576 424.416L444.576 423.261L446.576 424.416L444.576 427.88ZM444.749 85.6467L442.749 82.1826L448.749 78.7185L448.749 85.6467L444.749 85.6467ZM148.407 256.74L150.407 260.204L148.407 261.359L146.407 260.204L148.407 256.74ZM148.234 256.64L144.234 256.64L144.234 249.712L150.234 253.176L148.234 256.64ZM148.234 598.973L150.234 602.437L144.234 605.901L144.234 598.973L148.234 598.973ZM442.749 431.444L442.576 431.344L446.576 424.416L446.749 424.516L442.749 431.444ZM448.749 85.6467L448.749 427.98L440.749 427.98L440.749 85.6467L448.749 85.6467ZM146.407 253.276L442.749 82.1826L446.749 89.1108L150.407 260.204L146.407 253.276ZM146.407 260.204L146.234 260.104L150.234 253.176L150.407 253.276L146.407 260.204ZM152.234 256.64L152.234 598.973L144.234 598.973L144.234 256.64L152.234 256.64ZM146.234 595.509L442.576 424.416L446.576 431.344L150.234 602.437L146.234 595.509Z" fill="#F95B3D" mask="url(#path-9-inside-5_461_323)"/>
<mask id="path-11-inside-6_461_323" fill="white">
<path fill-rule="evenodd" clip-rule="evenodd" d="M739.069 596.652V596.452L1035.54 767.618L739.196 938.712V938.912L442.727 767.745L739.069 596.652Z"/>
</mask>
<path d="M739.069 596.452L741.069 592.988L735.069 589.524V596.452H739.069ZM739.069 596.652L741.069 600.116L743.069 598.961V596.652H739.069ZM1035.54 767.618L1037.54 771.083L1043.54 767.618L1037.54 764.154L1035.54 767.618ZM739.196 938.712L737.196 935.248L735.196 936.402V938.712H739.196ZM739.196 938.912L737.196 942.376L743.196 945.84V938.912H739.196ZM442.727 767.745L440.727 764.281L434.727 767.745L440.727 771.209L442.727 767.745ZM735.069 596.452V596.652H743.069V596.452H735.069ZM1037.54 764.154L741.069 592.988L737.069 599.916L1033.54 771.083L1037.54 764.154ZM741.196 942.176L1037.54 771.083L1033.54 764.154L737.196 935.248L741.196 942.176ZM735.196 938.712V938.912H743.196V938.712H735.196ZM741.196 935.448L444.727 764.281L440.727 771.209L737.196 942.376L741.196 935.448ZM444.727 771.209L741.069 600.116L737.069 593.188L440.727 764.281L444.727 771.209Z" fill="#F59FB1" mask="url(#path-11-inside-6_461_323)"/>
<mask id="path-13-inside-7_461_323" fill="white">
<path fill-rule="evenodd" clip-rule="evenodd" d="M1033.78 426.676V426.476L1330.25 597.643L1033.91 768.736V768.936L737.439 597.77L1033.78 426.676Z"/>
</mask>
<path d="M1033.78 426.476L1035.78 423.012L1029.78 419.548V426.476H1033.78ZM1033.78 426.676L1035.78 430.14L1037.78 428.986V426.676H1033.78ZM1330.25 597.643L1332.25 601.107L1338.25 597.643L1332.25 594.179L1330.25 597.643ZM1033.91 768.736L1031.91 765.272L1029.91 766.427V768.736H1033.91ZM1033.91 768.936L1031.91 772.4L1037.91 775.864V768.936H1033.91ZM737.439 597.77L735.439 594.305L729.439 597.77L735.439 601.234L737.439 597.77ZM1029.78 426.476V426.676H1037.78V426.476H1029.78ZM1332.25 594.179L1035.78 423.012L1031.78 429.94L1328.25 601.107L1332.25 594.179ZM1035.91 772.2L1332.25 601.107L1328.25 594.179L1031.91 765.272L1035.91 772.2ZM1029.91 768.736V768.936H1037.91V768.736H1029.91ZM1035.91 765.472L739.439 594.305L735.439 601.234L1031.91 772.4L1035.91 765.472ZM739.439 601.234L1035.78 430.14L1031.78 423.212L735.439 594.305L739.439 601.234Z" fill="#F59FB1" mask="url(#path-13-inside-7_461_323)"/>
</svg>
