<svg width="300" height="300" viewBox="0 0 300 300" fill="none" xmlns="http://www.w3.org/2000/svg">
<rect width="300" height="300" fill="#4654A3"/>
<path fill-rule="evenodd" clip-rule="evenodd" d="M109.034 135.352C109.034 124.306 117.989 115.352 129.034 115.352H238C249.046 115.352 258 124.306 258 135.352V222.717C258 233.763 249.046 242.717 238 242.717H129.034C117.989 242.717 109.034 233.763 109.034 222.717V135.352ZM122.441 138.759C122.441 133.236 126.919 128.759 132.441 128.759H234.593C240.116 128.759 244.593 133.236 244.593 138.759V218.566C244.593 224.088 240.116 228.566 234.593 228.566H132.441C126.919 228.566 122.441 224.088 122.441 218.566V192.069H109.034V164.51H122.441V138.759Z" fill="white"/>
<path fill-rule="evenodd" clip-rule="evenodd" d="M42 78C42 66.9543 50.9543 58 62 58H170.965C182.011 58 190.966 66.9543 190.966 78V107.903H177.559V81.4069C177.559 75.8841 173.081 71.4069 167.559 71.4069H65.4069C59.884 71.4069 55.4069 75.8841 55.4069 81.4069V161.214C55.4069 166.737 59.8841 171.214 65.4069 171.214H167.559C173.081 171.214 177.559 166.737 177.559 161.214V135.462H190.966V165.366C190.966 176.411 182.011 185.366 170.966 185.366H62C50.9543 185.366 42 176.411 42 165.366V78Z" fill="white"/>
</svg>
